<?xml version="1.0" encoding="utf-8"?>
<!-- Generator: Adobe Illustrator 27.4.1, SVG Export Plug-In . SVG Version: 6.00 Build 0)  -->
<svg version="1.1" id="Layer_1" xmlns="http://www.w3.org/2000/svg" xmlns:xlink="http://www.w3.org/1999/xlink" x="0px" y="0px"
	 viewBox="0 0 612 792" style="enable-background:new 0 0 612 792;" xml:space="preserve">
<style type="text/css">
	.st0{fill:#FFFFFF;}
</style>
<path class="st0" d="M326.91,307.35v-28.17l97.83,30.52c0,0,13.3,3.91,13.3,32.48s0,190.96,0,190.96s-6.26,17.22-21.52,17.22
	c-15.26,0-155.74,0-155.74,0s-16.43-5.48-16.43-18.78c0-13.3,0-27.78,0-27.78h22.7v22.7h129.91l-70.04-28.17V332h-59.87v23.48h-22.7
	V323c0,0,4.3-14.48,18.39-15.26C278,307.74,326.91,307.35,326.91,307.35z"/>
<polygon class="st0" points="297.96,417.7 297.96,441.17 209.91,441.17 236.52,464.26 219.89,480.89 167.26,429.04 220.09,376.22 
	236.13,393.04 212.65,417.3 "/>
</svg>
